<?xml version="1.0" standalone="no"?>
<!DOCTYPE svg PUBLIC "-//W3C//DTD SVG 20010904//EN"
 "http://www.w3.org/TR/2001/REC-SVG-20010904/DTD/svg10.dtd">
<svg version="1.0" xmlns="http://www.w3.org/2000/svg"
 width="256.000000pt" height="256.000000pt" viewBox="0 0 256.000000 256.000000"
 preserveAspectRatio="xMidYMid meet">

<g transform="translate(0.000000,256.000000) scale(0.100000,-0.100000)"
fill="#000000" stroke="none">
<path d="M1123 2549 c-174 -22 -380 -100 -535 -202 -121 -79 -297 -253 -371
-367 -154 -239 -211 -432 -210 -720 0 -180 12 -260 63 -407 137 -397 505 -728
905 -816 461 -102 902 24 1222 349 141 144 263 351 318 539 62 216 55 539 -17
744 -119 338 -351 592 -698 766 -137 69 -217 92 -370 110 -134 16 -209 17
-307 4z m366 -358 c120 -37 219 -122 272 -234 18 -38 29 -78 29 -104 0 -49 20
-73 60 -73 46 0 153 -43 209 -84 59 -44 101 -94 136 -165 25 -49 26 -58 23
-184 -3 -131 -3 -134 -38 -192 -44 -76 -730 -768 -802 -809 -43 -25 -51 -26
-82 -16 -89 29 -125 133 -69 202 15 18 180 188 368 378 198 201 348 360 358
382 23 49 21 85 -5 138 -18 36 -34 51 -80 73 -40 21 -65 27 -85 23 -52 -12
-157 -103 -481 -420 -178 -174 -336 -323 -352 -331 -16 -8 -48 -15 -71 -15
-36 0 -48 6 -81 40 -49 52 -51 89 -7 151 18 24 165 179 328 344 431 436 411
413 411 476 0 64 -31 134 -69 153 -41 21 -105 28 -149 16 -44 -11 -122 -82
-512 -465 -278 -273 -293 -285 -346 -285 -87 0 -147 90 -111 166 27 56 666
694 790 788 85 65 235 85 356 47z"/>
</g>
</svg>
